<?xml version="1.0" encoding="utf-8"?>
<!-- Generator: Adobe Illustrator 24.1.0, SVG Export Plug-In . SVG Version: 6.00 Build 0)  -->
<svg version="1.1" id="Слой_1" xmlns="http://www.w3.org/2000/svg" xmlns:xlink="http://www.w3.org/1999/xlink" x="0px" y="0px"
	 viewBox="0 0 190.4 146.6" style="enable-background:new 0 0 190.4 146.6;" xml:space="preserve">
<style type="text/css">
	.st0{fill:url(#SVGID_1_);}
	.st1{fill:url(#SVGID_2_);}
	.st2{fill:url(#SVGID_3_);}
	.st3{fill:url(#SVGID_4_);}
</style>
<g>
	<linearGradient id="SVGID_1_" gradientUnits="userSpaceOnUse" x1="20.3576" y1="24.3997" x2="168.9922" y2="158.7758">
		<stop  offset="0" style="stop-color:#FFFFFF"/>
		<stop  offset="1" style="stop-color:#967D00"/>
	</linearGradient>
	<path class="st0" d="M169.3,33.9c-11.6,0-21.1,9.5-21.1,21.1c0,5.9,2.4,11.2,6.3,15c-4.1,4-10.9,8.2-22,8.2
		c-12.9,0-19.7-16-23.2-29.7c7.4-4.7,12.2-12.9,12.2-22.2C121.5,11.8,109.7,0,95.2,0S68.9,11.8,68.9,26.3c0,9.5,5,17.8,12.5,22.4
		c-3.5,13.7-10.3,29.5-23.1,29.5c-8.9,0-16.1-2.6-21.5-7.8c-0.2-0.2-0.4-0.4-0.6-0.6c3.7-3.8,6-9,6-14.8c0-11.6-9.5-21.1-21.1-21.1
		C9.5,33.9,0,43.4,0,55c0,7.7,4.2,14.5,10.5,18.2C10,94.6,9.5,116,9,137.3v9.3h171v-9.3V73.2c6.2-3.7,10.4-10.4,10.4-18.2
		C190.4,43.4,180.9,33.9,169.3,33.9z M97.6,137.3l-2.4,0c0,0-1.1,0-2.9,0H43.6c-3.2-0.1-6.1-0.1-8.6-0.2c-4.8-0.2-8.5-0.4-11.1-0.7
		c-2.9-0.3-6.6-0.7-6.6-3.8c0-2.5,0.7-38.8,1-56.7c0.9,0.1,1.8,0.2,2.8,0.2c3,0,5.8-0.6,8.4-1.7c5.1,5.6,14,11.7,28.7,11.7
		c17.5,0,26.3-18.5,30.5-34.3c2.1,0.5,4.2,0.8,6.5,0.8c2.3,0,4.4-0.3,6.5-0.8c4.3,15.8,13,34.3,30.6,34.3c14.7,0,23.6-6.1,28.7-11.7
		c2.5,1.1,5.3,1.7,8.3,1.7c0.9,0,1.8-0.1,2.7-0.2v61.4H97.6z"/>
	<linearGradient id="SVGID_2_" gradientUnits="userSpaceOnUse" x1="47.3089" y1="106.0673" x2="67.3324" y2="124.17">
		<stop  offset="0" style="stop-color:#FFFFFF"/>
		<stop  offset="1" style="stop-color:#967D00"/>
	</linearGradient>
	<path class="st1" d="M57.3,100.6c-6.9,0-12.6,6.5-12.6,14.5s5.6,14.5,12.6,14.5s12.7-6.5,12.6-14.5
		C69.9,107.1,64.3,100.6,57.3,100.6z M57.3,121.1c-2.3,0-4.2-2.7-4.2-6c0-3.2,1.9-6,4.2-6c2.3,0,4.2,2.8,4.2,6
		S59.6,121.1,57.3,121.1z"/>
	<linearGradient id="SVGID_3_" gradientUnits="userSpaceOnUse" x1="122.5546" y1="106.0673" x2="142.5782" y2="124.17">
		<stop  offset="0" style="stop-color:#FFFFFF"/>
		<stop  offset="1" style="stop-color:#967D00"/>
	</linearGradient>
	<path class="st2" d="M132.5,100.6c-6.9,0-12.6,6.5-12.6,14.5s5.6,14.5,12.6,14.5s12.7-6.5,12.6-14.5
		C145.1,107.1,139.5,100.6,132.5,100.6z M132.5,121.1c-2.3,0-4.2-2.7-4.2-6c0-3.2,1.9-6,4.2-6s4.2,2.8,4.2,6
		S134.8,121.1,132.5,121.1z"/>
	<linearGradient id="SVGID_4_" gradientUnits="userSpaceOnUse" x1="77.2549" y1="91.1763" x2="113.1452" y2="123.6237">
		<stop  offset="0" style="stop-color:#FFFFFF"/>
		<stop  offset="1" style="stop-color:#967D00"/>
	</linearGradient>
	<path class="st3" d="M95.2,81.5c-12.5,0-22.7,11.6-22.7,25.9c0,14.3,10.2,25.9,22.7,25.9s22.7-11.6,22.7-25.9
		C117.9,93.1,107.7,81.5,95.2,81.5z M95.2,121.2c-5.8,0-10.5-6.2-10.5-13.8s4.7-13.8,10.5-13.8s10.6,6.2,10.5,13.8
		C105.7,115,101,121.2,95.2,121.2z"/>
</g>
</svg>
