<?xml version="1.0" encoding="utf-8"?>
<!-- Generator: Adobe Illustrator 24.1.0, SVG Export Plug-In . SVG Version: 6.00 Build 0)  -->
<svg version="1.1" id="Слой_1" xmlns="http://www.w3.org/2000/svg" xmlns:xlink="http://www.w3.org/1999/xlink" x="0px" y="0px"
	 viewBox="0 0 192.8 146.6" style="enable-background:new 0 0 192.8 146.6;" xml:space="preserve">
<style type="text/css">
	.st0{fill:#404041;}
	.st1{fill:#EAB641;}
	.st2{fill:#F0C338;}
	.st3{fill:#FCEEA1;}
	.st4{fill:#B96E9E;}
	.st5{fill:#ACD9ED;}
	.st6{fill:url(#SVGID_1_);}
	.st7{fill:url(#SVGID_2_);}
	.st8{fill:url(#SVGID_3_);}
	.st9{fill:url(#SVGID_4_);}
	.st10{fill:#FFFFFF;}
</style>
<g>
	<g>
		<g>
			<g>
				<path class="st0" d="M169.3,76.1c-11.6,0-21.1-9.5-21.1-21.1s9.5-21.1,21.1-21.1s21.1,9.5,21.1,21.1
					C190.4,66.7,180.9,76.1,169.3,76.1z"/>
				<path class="st0" d="M169.3,73.5c-10.2,0-18.5-8.3-18.5-18.5s8.3-18.5,18.5-18.5s18.5,8.3,18.5,18.5
					C187.8,65.2,179.5,73.5,169.3,73.5z"/>
				<path class="st0" d="M169.3,68.2c-7.3,0-13.2-5.9-13.2-13.2c0-7.3,5.9-13.2,13.2-13.2s13.2,5.9,13.2,13.2S176.6,68.2,169.3,68.2
					z"/>
				<path class="st1" d="M169.3,65.6L169.3,65.6c-5.8,0-10.6-4.7-10.6-10.6l0,0c0-5.8,4.7-10.6,10.6-10.6l0,0
					c5.8,0,10.6,4.7,10.6,10.6l0,0C179.9,60.9,175.1,65.6,169.3,65.6z"/>
			</g>
		</g>
		<g>
			<g>
				<path class="st0" d="M21.1,76.1C9.5,76.1,0,66.6,0,55s9.5-21.1,21.1-21.1S42.2,43.4,42.2,55C42.2,66.7,32.8,76.1,21.1,76.1z"/>
				<path class="st0" d="M21.1,73.5C10.9,73.5,2.6,65.2,2.6,55s8.3-18.5,18.5-18.5S39.6,44.8,39.6,55C39.6,65.2,31.3,73.5,21.1,73.5
					z"/>
				<path class="st0" d="M21.1,68.2c-7.3,0-13.2-5.9-13.2-13.2c0-7.3,5.9-13.2,13.2-13.2c7.3,0,13.2,5.9,13.2,13.2
					C34.3,62.3,28.4,68.2,21.1,68.2z"/>
				<path class="st1" d="M21.1,65.6L21.1,65.6c-5.8,0-10.6-4.7-10.6-10.6l0,0c0-5.8,4.7-10.6,10.6-10.6l0,0
					c5.8,0,10.6,4.7,10.6,10.6l0,0C31.7,60.9,27,65.6,21.1,65.6z"/>
			</g>
		</g>
		<path class="st0" d="M95.2,145.2c-0.5,0-13.9,0.2-29.1,0.2c-13.1,0-23.6-0.1-31.4-0.4c-5.1-0.2-8.9-0.4-11.7-0.7
			c-6.2-0.7-13.6-3.3-13.6-11.6c0-2.9,0.9-51.3,1.2-66.1l0.1-2.7l17.7-3h2l0.7,1.6c0.1,0.2,1.7,4.1,5.7,7.9
			c5.4,5.2,12.6,7.8,21.5,7.8c22.4,0,26.5-48.5,26.5-49l0.2-2.5h2.5h18.3l0.2,2.5c0,0.5,4.1,49,26.5,49c20.9,0,26.9-14.9,27.1-15.6
			l0.8-2l2.1,0.4l17.5,3.1v82.5L95.2,145.2z"/>
		<path class="st0" d="M95.2,142.6c-1.4,0-14.4,0.2-29.1,0.2c-13,0-23.6-0.1-31.3-0.4c-5-0.2-8.8-0.4-11.5-0.7
			c-2.8-0.3-11.3-1.3-11.3-9c0-3.3,1.2-64,1.2-66.5l15.4-2.6c0,0,1.8,4.5,6.3,8.8c5.9,5.6,13.8,8.5,23.3,8.5
			c25.2,0,29.1-51,29.1-51.5h15.8c0,0.5,4,51.5,29.1,51.5c23,0,29.5-17.1,29.6-17.3l15.4,2.7v77.6L95.2,142.6z"/>
		<path class="st0" d="M95.2,137.3c-0.1,0-13.6,0.2-29.1,0.2c-13,0-23.4-0.1-31.1-0.4c-4.8-0.2-8.5-0.4-11.1-0.7
			c-2.9-0.3-6.6-0.7-6.6-3.8c0-3.2,1.2-63.9,1.2-66.4l5.1-0.9c0.3,0.8,8.1,20.8,34.6,20.8c30.5,0,34.4-55.9,34.4-56.4h5.3
			c0,0.6,3.9,56.4,34.4,56.4c26.5,0,34.3-19.9,34.6-20.8l5.1,0.9v72.3L95.2,137.3z"/>
		<path class="st2" d="M169.3,135.9V66.3c0,0-8.2,22.5-37,22.5c-33.4,0-37-58.9-37-58.9s-3.6,58.9-37,58.9c-28.8,0-37-22.5-37-22.5
			s-1.2,63.2-1.2,66.4c0,3.2,75.3,2,75.3,2L169.3,135.9z"/>
		<g>
			<g>
				<path class="st0" d="M95.2,52.6c-14.5,0-26.3-11.8-26.3-26.3S80.7,0,95.2,0s26.3,11.8,26.3,26.3
					C121.6,40.7,109.7,52.6,95.2,52.6z"/>
				<circle class="st0" cx="95.2" cy="26.2" r="23.7"/>
				<path class="st0" d="M95.2,44.6c-10.2,0-18.4-8.3-18.4-18.4S85.1,7.8,95.2,7.8c10.2,0,18.4,8.3,18.4,18.4
					C113.6,36.3,105.4,44.6,95.2,44.6z"/>
				<path class="st1" d="M95.2,42L95.2,42c-8.7,0-15.8-7.1-15.8-15.8l0,0c0-8.7,7.1-15.8,15.8-15.8l0,0c8.7,0,15.8,7.1,15.8,15.8
					l0,0C111,34.9,103.9,42,95.2,42z"/>
			</g>
		</g>
		<g>
			<g>
				<path class="st0" d="M85.4,41.3c-4.7,0-8.9-2.6-11.1-6.7c-1.7-3.2-2.6-6.8-2.6-10.5c0-5.9,2.3-11.5,6.5-15.7S88,1.9,94,1.9
					c5.9,0,11.5,2.3,15.7,6.5l0.1,0.1c3.6,3.6,4.6,9,2.7,13.7c-2,4.7-6.6,7.8-11.7,7.8c-0.5,0-1.1,0-1.6-0.1c-0.1,0-0.1,0-0.2,0
					c-0.3,0-0.7,0.2-0.9,0.4c0,0.1-0.1,0.2-0.1,0.4C96.9,36.9,91.7,41.3,85.4,41.3z"/>
				<path class="st0" d="M85.4,38.7c-3.7,0-7.1-2-8.8-5.3c-1.5-2.8-2.3-6-2.3-9.2c0-5.2,2-10.2,5.7-13.9s8.7-5.8,13.9-5.8
					s10.2,2,13.9,5.7l0.1,0.1c2.8,2.9,3.7,7.1,2.1,10.8c-1.6,3.8-5.2,6.2-9.3,6.2c-0.4,0-0.9,0-1.3-0.1c-0.2,0-0.3,0-0.5,0
					c-1.3,0-2.2,0.7-2.8,1.2c-0.1,0.1-0.6,0.6-0.8,1.8C94.5,35.1,90.4,38.7,85.4,38.7z"/>
				<path class="st0" d="M85.4,33.4c-1.8,0-3.3-0.9-4.2-2.5c-1.1-2.1-1.7-4.4-1.7-6.8c0-3.8,1.5-7.4,4.2-10.1
					c2.7-2.7,6.3-4.2,10.1-4.2s7.4,1.5,10.1,4.2c1.4,1.4,1.8,3.4,1,5.1c-0.7,1.8-2.5,2.9-4.4,2.9c-0.2,0-0.4,0-0.6,0
					c-0.4,0-0.8-0.1-1.2-0.1c-2.4,0-4.6,1-6.4,2.7c-1.2,1.2-2,2.8-2.4,4.8C89.7,31.7,87.8,33.4,85.4,33.4z"/>
				<path class="st3" d="M102.2,15.9c1.4,1.4,0.1,3.8-1.8,3.5c-0.5-0.1-1-0.1-1.5-0.1c-3.2,0-6.1,1.4-8.3,3.4
					c-1.9,1.9-2.8,4.2-3.1,6.2s-3,2.5-3.9,0.7c-0.9-1.6-1.4-3.5-1.4-5.5c0-3.2,1.3-6.2,3.4-8.3c2.1-2.1,5-3.4,8.3-3.4
					C97.1,12.5,100.1,13.8,102.2,15.9L102.2,15.9z"/>
			</g>
		</g>
		<g>
			<g>
				<path class="st0" d="M15.4,69.5c-4.4,0-8.4-2.4-10.5-6.3c-1.4-2.6-2.1-5.5-2.1-8.5c0-4.8,1.9-9.3,5.2-12.7
					c3.4-3.4,7.9-5.3,12.7-5.3c4.8,0,9.3,1.9,12.7,5.2c3.4,3.5,4.4,8.5,2.6,13c-1.7,4-5.4,6.8-9.7,7.3
					C24.5,66.7,20.3,69.5,15.4,69.5z"/>
				<path class="st0" d="M15.4,66.9C12,66.9,8.9,65,7.3,62c-1.2-2.2-1.8-4.7-1.8-7.2c0-4.1,1.6-7.9,4.5-10.8s6.7-4.5,10.8-4.5
					c4.1,0,7.9,1.6,10.8,4.5c2.7,2.7,3.4,6.6,2,10.1s-4.8,5.7-8.5,5.7c-0.2,0-0.4,0-0.6,0C23.4,63.9,19.8,66.9,15.4,66.9z"/>
				<path class="st0" d="M15.4,61.6c-1.5,0-2.8-0.8-3.5-2.1c-0.8-1.4-1.2-3.1-1.2-4.7c0-2.7,1-5.2,2.9-7.1s4.4-2.9,7.1-2.9
					s5.2,1,7.1,2.9c1.2,1.2,1.5,2.8,0.9,4.3s-2.1,2.5-3.7,2.5c-0.2,0-0.3,0-0.5,0s-0.4,0-0.6,0c-1.2,0-2.4,0.5-3.4,1.4
					c-0.6,0.6-1,1.4-1.2,2.5C19,60.2,17.4,61.6,15.4,61.6z"/>
				<path class="st3" d="M26,49.6c0.9,0.9,0.1,2.4-1.2,2.2c-0.3,0-0.6-0.1-1-0.1c-2,0-3.9,0.9-5.2,2.2c-1.2,1.2-1.8,2.6-2,3.9
					s-1.9,1.5-2.5,0.4c-0.6-1-0.9-2.2-0.9-3.5c0-2,0.8-3.9,2.2-5.2c1.3-1.3,3.2-2.2,5.2-2.2C22.8,47.4,24.7,48.3,26,49.6L26,49.6z"
					/>
			</g>
		</g>
		<g>
			<g>
				<path class="st0" d="M163.7,69.5c-4.4,0-8.4-2.4-10.5-6.3c-1.4-2.6-2.1-5.5-2.1-8.5c0-4.8,1.9-9.3,5.2-12.7
					c3.4-3.4,7.9-5.3,12.7-5.3s9.3,1.9,12.7,5.2c3.4,3.5,4.4,8.5,2.6,13c-1.7,4-5.4,6.8-9.7,7.3C172.8,66.7,168.5,69.5,163.7,69.5z"
					/>
				<path class="st0" d="M163.7,66.9c-3.4,0-6.5-1.9-8.1-4.9c-1.2-2.2-1.8-4.7-1.8-7.2c0-4.1,1.6-7.9,4.5-10.8s6.7-4.5,10.8-4.5
					s7.9,1.6,10.8,4.5c2.7,2.7,3.5,6.6,2,10.1c-1.4,3.5-4.8,5.7-8.5,5.7c-0.2,0-0.4,0-0.6,0C171.7,63.9,168,66.9,163.7,66.9z"/>
				<path class="st0" d="M163.7,61.6c-1.5,0-2.8-0.8-3.5-2.1c-0.8-1.4-1.2-3.1-1.2-4.7c0-2.7,1-5.2,2.9-7.1s4.4-2.9,7.1-2.9
					c2.7,0,5.2,1,7.1,2.9c1.2,1.2,1.5,2.8,0.9,4.3s-2.1,2.5-3.7,2.5c-0.2,0-0.3,0-0.5,0s-0.4,0-0.6,0c-1.2,0-2.4,0.5-3.4,1.4
					c-0.6,0.6-1,1.4-1.2,2.5C167.3,60.2,165.6,61.6,163.7,61.6z"/>
				<path class="st3" d="M174.3,49.6c0.9,0.9,0.1,2.4-1.2,2.2c-0.3,0-0.6-0.1-1-0.1c-2,0-3.9,0.9-5.2,2.2c-1.2,1.2-1.8,2.6-2,3.9
					s-1.9,1.5-2.5,0.4c-0.6-1-0.9-2.2-0.9-3.5c0-2,0.8-3.9,2.2-5.2c1.3-1.3,3.2-2.2,5.2-2.2C171.1,47.4,172.9,48.3,174.3,49.6
					L174.3,49.6z"/>
			</g>
		</g>
		<g>
			<g>
				<ellipse class="st0" cx="95.2" cy="107.4" rx="25.3" ry="28.6"/>
				<ellipse class="st0" cx="95.2" cy="107.4" rx="22.7" ry="25.9"/>
				<ellipse class="st0" cx="95.2" cy="107.4" rx="17.4" ry="20.7"/>
				<ellipse class="st4" cx="95.2" cy="107.4" rx="14.8" ry="18"/>
			</g>
		</g>
		<g>
			<g>
				<path class="st0" d="M70.4,113.2c-0.3-1.9-0.5-3.8-0.5-5.8c0-15.8,11.4-28.6,25.3-28.6c5.5,0,10.7,1.9,15.1,5.6l9.7,8.1
					l-46.4,38.4L70.4,113.2z"/>
				<path class="st0" d="M73,112.7c-0.3-1.7-0.5-3.5-0.5-5.3c0-14.3,10.2-25.9,22.7-25.9c4.9,0,9.5,1.7,13.4,5l7.3,6.1l-40.5,33.5
					L73,112.7z"/>
				<path class="st0" d="M78.2,111.8c-0.3-1.4-0.4-2.9-0.4-4.4c0-11.4,7.8-20.7,17.4-20.7c3.6,0,7.1,1.3,10,3.7l2.4,2L79,116.2
					L78.2,111.8z"/>
				<path class="st5" d="M103.5,92.5l-22.7,18.8c-0.2-1.3-0.3-2.5-0.3-3.9c0-10,6.6-18,14.8-18C98.3,89.4,101.2,90.5,103.5,92.5z"/>
			</g>
		</g>
		<g>
			<g>
				<ellipse class="st0" cx="133.1" cy="115.2" rx="19" ry="20.8"/>
				<ellipse class="st0" cx="133.1" cy="115.2" rx="16.3" ry="18.2"/>
				<ellipse class="st0" cx="133.1" cy="115.2" rx="11" ry="12.9"/>
				<ellipse class="st4" cx="133.1" cy="115.2" rx="8.4" ry="10.3"/>
			</g>
		</g>
		<g>
			<g>
				<path class="st0" d="M115.8,123.7c-1.1-2.7-1.6-5.5-1.6-8.5c0-11.5,8.5-20.8,19-20.8c5.8,0,11.1,2.8,14.7,7.7l5.9,8L133.3,127
					c-0.1,0.1-0.6,0.5-1.2,1l-11,8.8L115.8,123.7z"/>
				<path class="st0" d="M118.2,122.7c-1-2.4-1.4-4.9-1.4-7.5c0-10,7.3-18.2,16.3-18.2c4.9,0,9.5,2.4,12.6,6.6l4.4,6l-18.5,15.3
					c-0.1,0.1-0.6,0.5-1.1,0.9l-8.3,6.6L118.2,122.7z"/>
				<path class="st0" d="M123.1,120.7c-0.7-1.7-1.1-3.6-1.1-5.5c0-7.1,5-12.9,11-12.9c3.2,0,6.3,1.6,8.4,4.5l1.5,2L128.2,121
					c0,0-0.4,0.3-1,0.8l-2.8,2.2L123.1,120.7z"/>
				<path class="st5" d="M139.4,108.3l-12.8,10.6c0,0-0.4,0.3-1,0.8c-0.6-1.4-0.9-2.9-0.9-4.5c0-5.7,3.8-10.3,8.4-10.3
					C135.6,104.9,137.8,106.2,139.4,108.3z"/>
			</g>
		</g>
		<g>
			<g>
				<path class="st0" d="M133.1,140.2c-12.8,0-23.2-11.2-23.2-25s10.4-25,23.2-25s23.2,11.2,23.2,25
					C156.3,129,145.9,140.2,133.1,140.2z"/>
				<path class="st0" d="M133.1,137.6c-11.3,0-20.6-10-20.6-22.4s9.2-22.4,20.6-22.4c11.3,0,20.6,10,20.6,22.4
					C153.7,127.5,144.5,137.6,133.1,137.6z"/>
				<path class="st0" d="M133.1,132.3c-8.4,0-15.3-7.7-15.3-17.1s6.9-17.1,15.3-17.1c8.4,0,15.3,7.7,15.3,17.1
					S141.5,132.3,133.1,132.3z M133.1,111.8c-0.4,0-1.5,1.2-1.5,3.4c0,2.2,1.2,3.4,1.5,3.4c0.4,0,1.5-1.2,1.5-3.4
					C134.7,113,133.5,111.8,133.1,111.8z"/>
				<path class="st0" d="M133.1,129.6c-7,0-12.6-6.5-12.6-14.5s5.7-14.5,12.6-14.5c7,0,12.6,6.5,12.6,14.5
					C145.8,123.1,140.1,129.6,133.1,129.6z M133.1,109.1c-2.3,0-4.2,2.8-4.2,6c0,3.3,1.9,6,4.2,6s4.2-2.8,4.2-6
					C137.3,111.9,135.4,109.1,133.1,109.1z"/>
			</g>
		</g>
		<g>
			<g>
				<ellipse class="st0" cx="57.3" cy="115.2" rx="19" ry="20.8"/>
				<ellipse class="st0" cx="57.3" cy="115.2" rx="16.3" ry="18.2"/>
				<ellipse class="st0" cx="57.3" cy="115.2" rx="11" ry="12.9"/>
				<ellipse class="st4" cx="57.3" cy="115.2" rx="8.4" ry="10.3"/>
			</g>
		</g>
		<g>
			<g>
				<path class="st0" d="M40,123.7c-1.1-2.7-1.6-5.5-1.6-8.5c0-11.5,8.5-20.8,19-20.8c5.8,0,11.1,2.8,14.7,7.7l5.9,8L57.5,127
					c-0.1,0.1-0.6,0.5-1.2,1l-11,8.8L40,123.7z"/>
				<path class="st0" d="M42.4,122.7c-1-2.4-1.5-4.9-1.5-7.5c0-10,7.3-18.2,16.3-18.2c4.9,0,9.5,2.4,12.6,6.6l4.4,6l-18.5,15.3
					c-0.1,0.1-0.6,0.5-1.1,0.9l-8.3,6.6L42.4,122.7z"/>
				<path class="st0" d="M47.3,120.7c-0.7-1.7-1.1-3.6-1.1-5.5c0-7.1,5-12.9,11-12.9c3.2,0,6.3,1.6,8.4,4.5l1.5,2L52.4,121
					c0,0-0.4,0.3-1,0.8l-2.8,2.2L47.3,120.7z"/>
				<path class="st5" d="M63.6,108.3l-12.8,10.6c0,0-0.4,0.3-1,0.8c-0.6-1.4-0.9-2.9-0.9-4.5c0-5.7,3.8-10.3,8.4-10.3
					C59.8,104.9,62,106.2,63.6,108.3z"/>
			</g>
		</g>
		<g>
			<g>
				<path class="st0" d="M57.3,140.2c-12.8,0-23.2-11.2-23.2-25s10.4-25,23.2-25s23.2,11.2,23.2,25C80.5,129,70.1,140.2,57.3,140.2z
					"/>
				<path class="st0" d="M57.3,137.6c-11.3,0-20.6-10-20.6-22.4s9.2-22.4,20.6-22.4c11.3,0,20.6,10,20.6,22.4
					C77.9,127.5,68.6,137.6,57.3,137.6z"/>
				<path class="st0" d="M57.3,132.3c-8.4,0-15.3-7.7-15.3-17.1s6.9-17.1,15.3-17.1s15.3,7.7,15.3,17.1S65.7,132.3,57.3,132.3z
					 M57.3,111.8c-0.4,0-1.5,1.2-1.5,3.4c0,2.2,1.2,3.4,1.5,3.4c0.4,0,1.5-1.2,1.5-3.4S57.7,111.8,57.3,111.8z"/>
				<path class="st0" d="M57.3,129.6c-7,0-12.6-6.5-12.6-14.5s5.7-14.5,12.6-14.5c7,0,12.6,6.5,12.6,14.5
					C70,123.1,64.3,129.6,57.3,129.6z M57.3,109.1c-2.3,0-4.2,2.8-4.2,6c0,3.3,1.9,6,4.2,6s4.2-2.8,4.2-6
					C61.5,111.9,59.6,109.1,57.3,109.1z"/>
			</g>
		</g>
		<g>
			<g>
				<path class="st0" d="M95.2,140.2c-16.3,0-29.6-14.7-29.6-32.8c0-18.1,13.3-32.8,29.6-32.8s29.6,14.7,29.6,32.8
					C124.8,125.5,111.5,140.2,95.2,140.2z"/>
				<path class="st0" d="M95.2,137.6c-14.8,0-26.9-13.5-26.9-30.2c0-16.6,12.1-30.2,26.9-30.2c14.8,0,26.9,13.5,26.9,30.2
					C122.1,124,110.1,137.6,95.2,137.6z M95.2,101.5c-0.7,0-2.6,2.1-2.6,5.9s2,5.9,2.6,5.9s2.6-2.1,2.6-5.9
					C97.8,103.6,95.9,101.5,95.2,101.5z"/>
				<path class="st0" d="M95.2,132.3c-11.9,0-21.6-11.2-21.6-24.9c0-13.7,9.7-24.9,21.6-24.9c11.9,0,21.6,11.2,21.6,24.9
					C116.9,121.1,107.2,132.3,95.2,132.3z M95.2,96.3c-4.3,0-7.9,5.1-7.9,11.1s3.6,11.1,7.9,11.1c4.3,0,7.9-5.1,7.9-11.1
					S99.5,96.3,95.2,96.3z"/>
				<path class="st0" d="M95.2,129.6c-10.5,0-19-10-19-22.2c0-12.3,8.5-22.2,19-22.2s19,10,19,22.2
					C114.2,119.7,105.7,129.6,95.2,129.6z M95.2,93.6c-5.8,0-10.5,6.2-10.5,13.8c0,7.6,4.7,13.8,10.5,13.8s10.5-6.2,10.5-13.8
					C105.8,99.8,101,93.6,95.2,93.6z"/>
			</g>
		</g>
	</g>
	<g>
		<g>
			<g>
				<linearGradient id="SVGID_1_" gradientUnits="userSpaceOnUse" x1="158.7" y1="55" x2="179.9" y2="55">
					<stop  offset="0" style="stop-color:#FFFFFF"/>
					<stop  offset="1" style="stop-color:#000000"/>
				</linearGradient>
				<path class="st6" d="M169.3,65.6L169.3,65.6c-5.8,0-10.6-4.7-10.6-10.6l0,0c0-5.8,4.7-10.6,10.6-10.6l0,0
					c5.8,0,10.6,4.7,10.6,10.6l0,0C179.9,60.9,175.1,65.6,169.3,65.6z"/>
			</g>
		</g>
		<g>
			<g>
				<linearGradient id="SVGID_2_" gradientUnits="userSpaceOnUse" x1="10.5" y1="55" x2="31.7" y2="55">
					<stop  offset="0" style="stop-color:#FFFFFF"/>
					<stop  offset="1" style="stop-color:#000000"/>
				</linearGradient>
				<path class="st7" d="M21.1,65.6L21.1,65.6c-5.8,0-10.6-4.7-10.6-10.6l0,0c0-5.8,4.7-10.6,10.6-10.6l0,0
					c5.8,0,10.6,4.7,10.6,10.6l0,0C31.7,60.9,27,65.6,21.1,65.6z"/>
			</g>
		</g>
		<linearGradient id="SVGID_3_" gradientUnits="userSpaceOnUse" x1="29.0029" y1="15.5196" x2="251.5837" y2="300.1747">
			<stop  offset="0" style="stop-color:#FFFFFF"/>
			<stop  offset="1" style="stop-color:#000000"/>
		</linearGradient>
		<path class="st8" d="M169.3,135.9V66.3c0,0-8.2,22.5-37,22.5c-33.4,0-37-58.9-37-58.9s-3.6,58.9-37,58.9c-28.8,0-37-22.5-37-22.5
			s-1.2,63.2-1.2,66.4c0,3.2,75.3,2,75.3,2L169.3,135.9z"/>
		<g>
			<g>
				<linearGradient id="SVGID_4_" gradientUnits="userSpaceOnUse" x1="79.4" y1="26.2" x2="111" y2="26.2">
					<stop  offset="0" style="stop-color:#FFFFFF"/>
					<stop  offset="1" style="stop-color:#000000"/>
				</linearGradient>
				<path class="st9" d="M95.2,42L95.2,42c-8.7,0-15.8-7.1-15.8-15.8l0,0c0-8.7,7.1-15.8,15.8-15.8l0,0c8.7,0,15.8,7.1,15.8,15.8
					l0,0C111,34.9,103.9,42,95.2,42z"/>
			</g>
		</g>
		<g>
			<g>
				<path class="st10" d="M102.2,15.9c1.4,1.4,0.1,3.8-1.8,3.5c-0.5-0.1-1-0.1-1.5-0.1c-3.2,0-6.1,1.4-8.3,3.4
					c-1.9,1.9-2.8,4.2-3.1,6.2s-3,2.5-3.9,0.7c-0.9-1.6-1.4-3.5-1.4-5.5c0-3.2,1.3-6.2,3.4-8.3c2.1-2.1,5-3.4,8.3-3.4
					C97.1,12.5,100.1,13.8,102.2,15.9L102.2,15.9z"/>
			</g>
		</g>
		<g>
			<g>
				<path class="st10" d="M26,49.6c0.9,0.9,0.1,2.4-1.2,2.2c-0.3,0-0.6-0.1-1-0.1c-2,0-3.9,0.9-5.2,2.2c-1.2,1.2-1.8,2.6-2,3.9
					s-1.9,1.5-2.5,0.4c-0.6-1-0.9-2.2-0.9-3.5c0-2,0.8-3.9,2.2-5.2c1.3-1.3,3.2-2.2,5.2-2.2C22.8,47.4,24.7,48.3,26,49.6L26,49.6z"
					/>
			</g>
		</g>
		<g>
			<g>
				<path class="st10" d="M174.3,49.6c0.9,0.9,0.1,2.4-1.2,2.2c-0.3,0-0.6-0.1-1-0.1c-2,0-3.9,0.9-5.2,2.2c-1.2,1.2-1.8,2.6-2,3.9
					s-1.9,1.5-2.5,0.4c-0.6-1-0.9-2.2-0.9-3.5c0-2,0.8-3.9,2.2-5.2c1.3-1.3,3.2-2.2,5.2-2.2C171.1,47.4,172.9,48.3,174.3,49.6
					L174.3,49.6z"/>
			</g>
		</g>
		<g>
			<g>
				<ellipse class="st4" cx="95.2" cy="107.4" rx="14.8" ry="18"/>
			</g>
		</g>
		<g>
			<g>
				<path class="st5" d="M103.5,92.5l-22.7,18.8c-0.2-1.3-0.3-2.5-0.3-3.9c0-10,6.6-18,14.8-18C98.3,89.4,101.2,90.5,103.5,92.5z"/>
			</g>
		</g>
		<g>
			<g>
				<ellipse class="st4" cx="133.1" cy="115.2" rx="8.4" ry="10.3"/>
			</g>
		</g>
		<g>
			<g>
				<path class="st5" d="M139.4,108.3l-12.8,10.6c0,0-0.4,0.3-1,0.8c-0.6-1.4-0.9-2.9-0.9-4.5c0-5.7,3.8-10.3,8.4-10.3
					C135.6,104.9,137.8,106.2,139.4,108.3z"/>
			</g>
		</g>
		<g>
			<g>
				<path class="st0" d="M133.1,129.6c-7,0-12.6-6.5-12.6-14.5s5.7-14.5,12.6-14.5c7,0,12.6,6.5,12.6,14.5
					C145.8,123.1,140.1,129.6,133.1,129.6z M133.1,109.1c-2.3,0-4.2,2.8-4.2,6c0,3.3,1.9,6,4.2,6s4.2-2.8,4.2-6
					C137.3,111.9,135.4,109.1,133.1,109.1z"/>
			</g>
		</g>
		<g>
			<g>
				<ellipse class="st4" cx="57.3" cy="115.2" rx="8.4" ry="10.3"/>
			</g>
		</g>
		<g>
			<g>
				<path class="st5" d="M63.6,108.3l-12.8,10.6c0,0-0.4,0.3-1,0.8c-0.6-1.4-0.9-2.9-0.9-4.5c0-5.7,3.8-10.3,8.4-10.3
					C59.8,104.9,62,106.2,63.6,108.3z"/>
			</g>
		</g>
		<g>
			<g>
				<path class="st0" d="M57.3,129.6c-7,0-12.6-6.5-12.6-14.5s5.7-14.5,12.6-14.5c7,0,12.6,6.5,12.6,14.5
					C70,123.1,64.3,129.6,57.3,129.6z M57.3,109.1c-2.3,0-4.2,2.8-4.2,6c0,3.3,1.9,6,4.2,6s4.2-2.8,4.2-6
					C61.5,111.9,59.6,109.1,57.3,109.1z"/>
			</g>
		</g>
		<g>
			<g>
				<path class="st0" d="M95.2,129.6c-10.5,0-19-10-19-22.2c0-12.3,8.5-22.2,19-22.2s19,10,19,22.2
					C114.2,119.7,105.7,129.6,95.2,129.6z M95.2,93.6c-5.8,0-10.5,6.2-10.5,13.8c0,7.6,4.7,13.8,10.5,13.8s10.5-6.2,10.5-13.8
					C105.8,99.8,101,93.6,95.2,93.6z"/>
			</g>
		</g>
	</g>
	<rect x="9.4" y="133.4" class="st0" width="170.5" height="13.2"/>
</g>
</svg>
